HIERARCHY
ROOT Hips
{
	OFFSET -14.64140 90.27770 -84.91600
	CHANNELS 6 Xposition Yposition Zposition Zrotation Xrotation Yrotation
	JOINT Spine
	{
		OFFSET 0.00000 13.20850 -1.60436
		CHANNELS 3 Zrotation Xrotation Yrotation
		JOINT Spine1
		{
			OFFSET 0.00000 8.61716 0.00000
			CHANNELS 3 Zrotation Xrotation Yrotation
			JOINT Spine2
			{
				OFFSET 0.00000 8.61717 0.00000
				CHANNELS 3 Zrotation Xrotation Yrotation
				JOINT Spine3
				{
					OFFSET 0.00000 8.61717 0.00000
					CHANNELS 3 Zrotation Xrotation Yrotation
					JOINT Neck
					{
						OFFSET 0.00000 11.07920 1.10792
						CHANNELS 3 Zrotation Xrotation Yrotation
						JOINT Neck1
						{
							OFFSET 0.00000 7.08032 0.00000
							CHANNELS 3 Zrotation Xrotation Yrotation
							JOINT Head
							{
								OFFSET 0.00000 7.08031 0.00000
								CHANNELS 3 Zrotation Xrotation Yrotation
								End site
								{
									OFFSET 0.00000 0.00000 0.00000
								}
							}
						}
					}
					JOINT RightShoulder
					{
						OFFSET -0.01000 7.91373 5.19711
						CHANNELS 3 Zrotation Xrotation Yrotation
						JOINT RightArm
						{
							OFFSET -18.41580 0.00000 0.00000
							CHANNELS 3 Zrotation Xrotation Yrotation
							JOINT RightForeArm
							{
								OFFSET -29.11090 0.00000 0.00000
								CHANNELS 3 Zrotation Xrotation Yrotation
								JOINT RightHand
								{
									OFFSET -24.65040 0.00000 0.00000
									CHANNELS 3 Zrotation Xrotation Yrotation
									JOINT RightHandThumb1
									{
										OFFSET -5.35114 -0.85590 3.97906
										CHANNELS 3 Zrotation Xrotation Yrotation
										JOINT RightHandThumb2
										{
											OFFSET -4.52789 0.00000 0.00000
											CHANNELS 3 Zrotation Xrotation Yrotation
											JOINT RightHandThumb3
											{
												OFFSET -2.46976 0.00000 0.00000
												CHANNELS 3 Zrotation Xrotation Yrotation
												End site
												{
													OFFSET 0.00000 0.00000 0.00000
												}
											}
										}
									}
									JOINT RightHandIndex1
									{
										OFFSET -14.26970 0.00000 2.88139
										CHANNELS 3 Zrotation Xrotation Yrotation
										JOINT RightHandIndex2
										{
											OFFSET -5.48836 0.00000 0.00000
											CHANNELS 3 Zrotation Xrotation Yrotation
											JOINT RightHandIndex3
											{
												OFFSET -3.01859 0.00000 0.00000
												CHANNELS 3 Zrotation Xrotation Yrotation
												End site
												{
													OFFSET 0.00000 0.00000 0.00000
												}
											}
										}
									}
									JOINT RightHandMiddle1
									{
										OFFSET -14.26970 0.00000 -0.09147
										CHANNELS 3 Zrotation Xrotation Yrotation
										JOINT RightHandMiddle2
										{
											OFFSET -6.17441 0.00000 0.00000
											CHANNELS 3 Zrotation Xrotation Yrotation
											JOINT RightHandMiddle3
											{
												OFFSET -3.56743 0.00000 0.00000
												CHANNELS 3 Zrotation Xrotation Yrotation
												End site
												{
													OFFSET 0.00000 0.00000 0.00000
												}
											}
										}
									}
									JOINT RightHandRing1
									{
										OFFSET -12.69180 0.00000 -3.06433
										CHANNELS 3 Zrotation Xrotation Yrotation
										JOINT RightHandRing2
										{
											OFFSET -5.62556 0.00000 0.00000
											CHANNELS 3 Zrotation Xrotation Yrotation
											JOINT RightHandRing3
											{
												OFFSET -3.56744 0.00000 0.00000
												CHANNELS 3 Zrotation Xrotation Yrotation
												End site
												{
													OFFSET 0.00000 0.00000 0.00000
												}
											}
										}
									}
									JOINT RightHandPinky1
									{
										OFFSET -11.11390 0.00000 -6.03719
										CHANNELS 3 Zrotation Xrotation Yrotation
										JOINT RightHandPinky2
										{
											OFFSET -4.52789 0.00000 0.00000
											CHANNELS 3 Zrotation Xrotation Yrotation
											JOINT RightHandPinky3
											{
												OFFSET -2.46976 0.00000 0.00000
												CHANNELS 3 Zrotation Xrotation Yrotation
												End site
												{
													OFFSET 0.00000 0.00000 0.00000
												}
											}
										}
									}
								}
							}
						}
					}
					JOINT LeftShoulder
					{
						OFFSET 0.01000 7.91373 5.19711
						CHANNELS 3 Zrotation Xrotation Yrotation
						JOINT LeftArm
						{
							OFFSET 18.41580 0.00000 0.00000
							CHANNELS 3 Zrotation Xrotation Yrotation
							JOINT LeftForeArm
							{
								OFFSET 29.11090 0.00000 0.00000
								CHANNELS 3 Zrotation Xrotation Yrotation
								JOINT LeftHand
								{
									OFFSET 24.65040 0.00000 0.00000
									CHANNELS 3 Zrotation Xrotation Yrotation
									JOINT LeftHandThumb1
									{
										OFFSET 5.35114 -0.85590 3.97906
										CHANNELS 3 Zrotation Xrotation Yrotation
										JOINT LeftHandThumb2
										{
											OFFSET 4.52789 0.00000 0.00000
											CHANNELS 3 Zrotation Xrotation Yrotation
											JOINT LeftHandThumb3
											{
												OFFSET 2.46977 0.00000 0.00000
												CHANNELS 3 Zrotation Xrotation Yrotation
												End site
												{
													OFFSET 0.00000 0.00000 0.00000
												}
											}
										}
									}
									JOINT LeftHandIndex1
									{
										OFFSET 14.26970 0.00000 2.88139
										CHANNELS 3 Zrotation Xrotation Yrotation
										JOINT LeftHandIndex2
										{
											OFFSET 5.48836 0.00000 0.00000
											CHANNELS 3 Zrotation Xrotation Yrotation
											JOINT LeftHandIndex3
											{
												OFFSET 3.01859 0.00000 0.00000
												CHANNELS 3 Zrotation Xrotation Yrotation
												End site
												{
													OFFSET 0.00000 0.00000 0.00000
												}
											}
										}
									}
									JOINT LeftHandMiddle1
									{
										OFFSET 14.26970 0.00000 -0.09147
										CHANNELS 3 Zrotation Xrotation Yrotation
										JOINT LeftHandMiddle2
										{
											OFFSET 6.17440 0.00000 0.00000
											CHANNELS 3 Zrotation Xrotation Yrotation
											JOINT LeftHandMiddle3
											{
												OFFSET 3.56744 0.00000 0.00000
												CHANNELS 3 Zrotation Xrotation Yrotation
												End site
												{
													OFFSET 0.00000 0.00000 0.00000
												}
											}
										}
									}
									JOINT LeftHandRing1
									{
										OFFSET 12.69180 0.00000 -3.06433
										CHANNELS 3 Zrotation Xrotation Yrotation
										JOINT LeftHandRing2
										{
											OFFSET 5.62556 0.00000 0.00000
											CHANNELS 3 Zrotation Xrotation Yrotation
											JOINT LeftHandRing3
											{
												OFFSET 3.56744 0.00000 0.00000
												CHANNELS 3 Zrotation Xrotation Yrotation
												End site
												{
													OFFSET 0.00000 0.00000 0.00000
												}
											}
										}
									}
									JOINT LeftHandPinky1
									{
										OFFSET 11.11390 0.00000 -6.03719
										CHANNELS 3 Zrotation Xrotation Yrotation
										JOINT LeftHandPinky2
										{
											OFFSET 4.52789 0.00000 0.00000
											CHANNELS 3 Zrotation Xrotation Yrotation
											JOINT LeftHandPinky3
											{
												OFFSET 2.46976 0.00000 0.00000
												CHANNELS 3 Zrotation Xrotation Yrotation
												End site
												{
													OFFSET 0.00000 0.00000 0.00000
												}
											}
										}
									}
								}
							}
						}
					}
					JOINT pCube4
					{
						OFFSET 0.00000 10.91090 1.10792
						CHANNELS 3 Zrotation Xrotation Yrotation
						End site
						{
							OFFSET 0.00000 0.00000 0.00000
						}
					}
				}
			}
		}
	}
	JOINT RightUpLeg
	{
		OFFSET -9.98441 0.00000 0.00000
		CHANNELS 3 Zrotation Xrotation Yrotation
		JOINT RightLeg
		{
			OFFSET 0.00000 -42.11790 0.00000
			CHANNELS 3 Zrotation Xrotation Yrotation
			JOINT RightFoot
			{
				OFFSET 0.00000 -45.00020 -0.00001
				CHANNELS 3 Zrotation Xrotation Yrotation
				JOINT RightForeFoot
				{
					OFFSET 0.00000 -3.74820 0.00000
					CHANNELS 3 Zrotation Xrotation Yrotation
					JOINT RightToeBase
					{
						OFFSET 0.00000 0.06325 14.43120
						CHANNELS 3 Zrotation Xrotation Yrotation
						End site
						{
							OFFSET 0.00000 0.00000 0.00000
						}
					}
				}
			}
		}
	}
	JOINT LeftUpLeg
	{
		OFFSET 9.98441 0.00000 0.00000
		CHANNELS 3 Zrotation Xrotation Yrotation
		JOINT LeftLeg
		{
			OFFSET 0.00000 -42.11800 0.00000
			CHANNELS 3 Zrotation Xrotation Yrotation
			JOINT LeftFoot
			{
				OFFSET 0.00000 -45.00070 0.00000
				CHANNELS 3 Zrotation Xrotation Yrotation
				JOINT LeftForeFoot
				{
					OFFSET 0.00000 -3.74824 0.00000
					CHANNELS 3 Zrotation Xrotation Yrotation
					JOINT LeftToeBase
					{
						OFFSET 0.00000 0.06325 14.43110
						CHANNELS 3 Zrotation Xrotation Yrotation
						End site
						{
							OFFSET 0.00000 0.00000 0.00000
						}
					}
				}
			}
		}
	}
}
MOTION
Frames: 4
Frame Time: 0.050000
-0.021159928964801004 0.017554172274939925 0.04267249111974569 -0.04761546444265568 0.006308130014631989 0.004817218614944906 -2.609659898753219 1.1338319092005613 -0.7234116504111927 -1.036112565416838 3.67748622037897 0.4110822684634662 -1.2013541999945871 -1.989719784465438 -0.9146785994831348 -0.5381830716141235 0.2152154881981435 -0.8166234160236054 -0.6477400461067161 13.690950322584097 1.3901728043057069 -0.2676011915914224 0.6654595863397158 1.034566189191627 -0.733776607288494 -13.842753609334618 0.13591570816631648 -7.079698338299804 2.4283758453661823 -12.68952533970813 63.95335167414778 5.38401845793144 24.53344101629991 17.621476793044327 -4.3664289774300675 75.20453177312001 17.53470996886012 -0.36338834164200035 -3.4929409024084688 4.5300099550744095 -0.16463901191514005 -1.6233980264557388 -0.008326476648340271 0.01935875942443696 -56.2233770243131 -0.003031429038308348 0.0106197683674574 -56.27600334529996 -38.74181354186109 -0.047618034967544125 -0.03302931529609077 0.022879920691983774 -0.009967692054337748 0.02765511903795432 -0.018126143807065478 -0.018550044938981033 -0.01829184498262012 -36.714354777142624 0.04207843131474451 0.012343617838659157 -0.039453976415213754 0.00734437003235393 -0.04228618359756814 0.049469423648262636 -0.012169498897621379 -0.02272171275784344 -19.75478076668431 -0.026309567228074284 0.043007911304478966 -0.0042179181905257985 0.010683931448153654 0.011042709434345273 -0.02081044975162415 0.048316363509803235 -0.021544954213786934 24.092010615009 0.04435313487842011 0.02789227454906027 28.87809655237789 0.024312398594498116 0.03438574054611902 28.83901762224055 0.029999782882510057 0.01800431513449536 8.837294651058786 1.921904229812148 12.045824856608137 -63.64426153573923 13.917338958192595 -24.14825653930508 -38.06794329178965 3.4288873191095472 -77.850003357545 -13.104204494326163 -0.26399678602305443 1.0586679462397246 -0.50695069231924 0.04398503864589163 -8.091154213342744 0.040119711671197586 -0.03697419914001225 44.596394812469185 -0.04318406695225584 -0.0036243682504899116 44.535423399138516 12.444485851957841 0.0171578283786086 0.014598557098478012 0.03978452961659321 0.046160939299238334 0.0043348282017268 0.0020874013141227656 0.01882237763198437 0.026386814210732037 11.134277964897912 0.027859384821608844 -0.03474044083638369 0.019941335354835627 -0.014041118518384205 0.03806319815241253 -0.04848344023577017 -0.019665583910524857 0.003813047688700849 4.762983721303075 0.007084334582554722 0.021667503431811164 0.02092138257765529 0.006033030064862696 0.03285422883736297 0.01886924165764593 0.021460844620479393 -0.02041950585480905 -5.643195164834213 -0.04364559348519946 -0.026739041272762068 -6.708420950361497 -0.03872875606192784 0.004470782861128331 -6.71635180826502 -0.013441863241210373 0.03408313458423356 -0.021890813662002653 -0.0474441130060722 0.033501332687056205 8.06321810237953 3.524240163837175 -19.22638934686839 0.035199134514225836 10.376510545664773 0.039095964080371665 -5.607840759476596 -15.656604539762085 3.18631986243302 -0.009851119950125737 0.016183572638310845 -0.011049302084853727 -0.005362203393447038 4.738060532993753 -0.03426656035048105 12.440438684528262 -8.252725466232784 6.906357618166891 -0.012160422957361711 46.358305724401255 -0.0346346237895778 -4.341011097752895 -14.752407554252603 -3.8246834920877655 0.02128200874326442 0.004434025167335067 -0.0326292123089959 0.01595536883762723 -10.69967132047724 -0.02704593751228094 
0.03801309031308602 0.032428232901754235 -0.04959270850587165 -0.04362616872651867 -0.0008706869472694164 -0.015887987745934595 -2.7157166605662635 1.2556930839148213 -0.6993853386516529 -0.9731998834092296 3.7305334971212147 0.42471150986180617 -1.235204192801217 -1.935633437300659 -0.9913883224792439 -0.49073955042124806 0.28668829835298115 -0.8089589124761526 -0.6830849081241522 13.42956591888176 1.3663885872263268 -0.2829416089573459 0.5103282070014952 0.9643894417834629 -0.7725425804516607 -13.988357683620313 0.1831679782485922 -6.832966495346997 2.361597477053272 -12.785913176378141 63.60731233100401 6.341450930422248 23.26719482336618 18.977828746113175 -5.348071149802569 72.66592698360333 17.83019103942734 -0.37664428393598015 -3.512717916083934 4.483228002555503 -0.1227595411870734 -1.6208105152826708 0.03640040800077406 -0.03339026043772411 -56.2170814012992 0.025131469070335387 0.0089416265912912 -56.270026608528596 -38.72840661794493 0.04515637371951508 0.026185262307324517 0.021137447052294783 -0.04034579007260713 0.0012280701176904426 -0.04354062661296207 0.005398776284883732 -0.047989673869680685 -36.728751392651006 -0.011138601122236698 -0.038926678990971145 0.04030052962790427 0.025890578237752586 0.04333813574518499 -0.04214772202015616 0.008151857727907073 -0.0070295833348492836 -19.724935611773773 0.028296950654115218 0.0015783919121942671 -0.0018016471309142833 -0.021293521533036736 0.022053483480058245 0.024907996247486436 -0.04981365291674911 0.038445461850072846 24.005379484502047 0.03458891790004708 -0.010175072650836251 28.819136858262137 0.0031287053297794263 0.041355706068748235 28.839766192512496 0.00700582534517539 0.03656016683005111 8.488199705457484 1.9043972205787627 11.915894091347072 -64.15372431722984 14.368643650624021 -22.681421384689955 -42.75305184772809 4.585029938447952 -76.54070975819876 -12.998306377269364 0.4985684949179582 0.720519089277772 -0.4695159811150337 0.10410460900678725 -8.166976243138649 -0.019223151615275328 -0.043073342083495024 44.578735818914666 -0.022977336177985277 -0.024894526137283313 44.540284948624794 12.469467243609794 0.03422481604254579 0.020869481447815943 0.005616577260188322 0.018831579505064377 -0.017997501770300642 -0.0385016397709019 0.015092541227682997 -0.01308202955723254 11.092386003338127 -0.037996336925661886 -0.02893742607434363 -0.04179209462764294 -0.00012925677972680798 0.021936709729848285 0.01823306183740956 0.049858628046050665 -0.03992258458368359 4.7695104596282345 -0.001560928369858286 -0.04371550516434489 0.02947314927893192 0.032406634188406495 -0.004401843592368121 -0.04440432660673211 -0.0014872376509006387 -0.0143771551495168 -5.636839509033231 -0.03550900122032258 -0.02842134418380911 -6.712717615409972 0.025871391880590476 -0.0003853199726785176 -6.704696529022683 0.008806512744412515 0.046182766350091116 0.0027468969546109103 0.013101137595848206 -0.012787492240188447 8.015375694296873 3.5296663114125804 -19.19970128084946 -0.010927627847898478 10.40455788360987 0.01645032380514288 -5.655380058061936 -15.647047700353248 3.1650006227095004 0.008268445519841796 -0.017348737557847924 0.02128437197996489 0.005930432478759531 4.686136898857761 0.04396600071055756 12.470906729941264 -8.236746006210119 6.849101338518042 0.03395086899327286 46.41287765680142 -0.0293887004671439 -4.29087846592235 -14.768360161455485 -3.8080058532912946 -0.0017810926597568435 -0.018101418457581432 -0.010561387176522344 -5.122433497656877e-05 -10.710152989366026 0.003716230104691148 
-0.0410937824615199 -0.005951350196003216 0.012903579088946205 -0.037839674219178186 -0.006518692150314826 -0.009203445732483157 -2.74397456234341 1.3308032439165849 -0.7136831773971483 -1.0566294350476544 3.7171973758831767 0.4237419016370433 -1.2387506829886876 -1.8825120311552905 -1.0451044793067956 -0.35467529749052873 0.30085515664877277 -0.8456664928683497 -0.6206666467579051 13.155812411994411 1.227021778969493 -0.2798776310570734 0.3061314041320966 0.5617376645686835 -0.7168550331670284 -14.261053267829775 0.10876387243301854 -6.576248405164603 2.208029251261742 -12.80741137377497 63.455820988816775 7.176262748503104 21.646092401900738 21.70391846338679 -6.152335251139272 69.83006592611659 18.251441872100685 -0.271173015657043 -3.552054573127388 4.530988525736938 -0.1230634863410781 -1.642758074092368 -0.04014778040413557 0.007440485042037254 -56.21664583386682 0.0013332616814419483 0.04092482550246823 -56.20344524196015 -38.72694682234625 -0.026288956920554715 0.024596336162315567 0.03618792440134304 -0.04546956528703599 -0.0038789005353369963 -0.014765685862055303 -0.04310248578667347 0.04881359372006457 -36.67088537887177 -0.036225199469270435 -0.033854551103815786 -0.04840756592193958 0.030798633486825305 0.04328004715193909 0.040870219071419404 0.0390883194555921 -0.04001737168360635 -19.74010539593567 0.02302457936286944 0.03376217506615178 -0.021064333604342234 -0.025633998763491626 0.026455491551226572 -0.01988031714986038 -0.00784935719447436 0.005163332780361181 24.011514657934388 -0.04230367316053156 -0.018148645577272065 28.826516051376007 -0.022131498504582754 -0.0036169767267016594 28.896631592401366 -0.01725674153486166 -0.0010490121265748732 7.965249633479114 1.7523113406523647 11.983597852244165 -64.70994934376421 14.851212596873614 -20.267632979810138 -46.17415285468383 4.877714391407376 -74.46184527875864 -12.940210711801862 1.1897409098257583 0.2960555406816931 -0.5114519308908536 0.03714569623995024 -8.129188327854509 -0.00025357251457965116 -0.01077008719332463 44.51935748323434 0.024102024182992624 0.008655928990907768 44.58326048947917 12.479183995039234 0.008520683273740361 -0.006957228637641768 0.027617198103157402 0.009284671058618348 -0.04288984338165436 0.004684154365966297 0.00038427084889800146 0.002865996543819926 11.08747049778941 -0.01034304372888821 -0.040563084153538057 0.02956966215170514 0.005417770778332139 -0.016369510577605256 0.03898147400996181 -0.009871204041599193 0.009727657853299657 4.766196852585092 0.03195150341345161 0.035611495390871 -0.013614243673960497 -0.011185711401447312 -0.005048814412549794 -0.02703664923272904 -8.14666982063328e-05 0.00782832772054291 -5.567146758072617 -0.008956334643917634 -0.04427471619474297 -6.6966801495237105 -0.02837941246723513 -0.03387386897832007 -6.702572297854057 -0.0037709373162817944 0.03549435581805561 0.02528339290467443 -0.006927654824129219 0.04697908198159623 8.057457572233973 3.4648395131742826 -19.17480370369377 0.030098578273712033 10.423779376849097 0.0027968834302056853 -5.6099659970769284 -15.632799512650212 3.168298379266597 -0.015492447141350061 0.018709853736778113 0.03340714510201978 0.03613808836466878 4.718573926655154 -0.009040030894523049 12.417120696185634 -8.264169040856642 6.902177140315799 -0.03220059468386638 46.41900452955196 0.027980445970598393 -4.342128337605358 -14.756771045571176 -3.8233402949592916 -0.0006485344057810211 -0.037993681494673595 0.021380414804927285 -0.005137547633752601 -10.735634511911792 0.027022081298091638 
-0.009708719167978564 -0.006549801443206564 0.008364400359140121 -0.025603696767756874 -0.03356435301402747 -0.0073218141012122056 -2.780122743898002 1.4837383359293372 -0.7027841995040847 -1.089644143823629 3.8030609924807486 0.4163532107490744 -1.2111192867021368 -1.8226158647067128 -0.9705464885181034 -0.208067060400013 0.35803272828928223 -0.8045287215471255 -0.4979414015753213 13.055137932006325 0.8907488551289856 -0.3564022750372545 0.1460705112033239 -0.3229452108223453 -0.6501756774335075 -14.557498021510892 0.0450357165506258 -6.471222490034492 2.1433357929732115 -12.955031872228622 63.455442547925244 7.630608060950394 20.386924165087613 23.954596236707015 -6.831697449690011 67.4345014577179 18.38226219530808 -0.2818562032852373 -3.4785392366322867 4.521260790884679 -0.1661009048478273 -1.5731929261986215 -0.006656423313729282 -0.013395644743471843 -56.19063472197467 0.02956861474636951 -0.04623343446024398 -56.23976511703831 -38.75433454464789 0.031998922842371345 0.024884596041507966 0.022557096833979218 0.03577350999721784 0.00864466463267278 -0.00922820576807874 -0.0010710043590569822 0.011020085991681758 -36.71355636735117 -0.036507519146502784 0.001622342594100494 -0.028561387815007087 -0.04241925145316425 -0.023979982016280713 0.02656987169886501 0.008655240461907385 0.004773664779477005 -19.750027368240005 -0.0076532825246420095 -0.04221725589097177 -0.001024314099028301 -0.016146524577992878 0.018683095863249753 -0.03342185370202963 -0.012966400296290453 -0.028066948489749728 24.061385490372725 0.03508054968574469 0.041340375993726274 28.83413150095137 -0.03080935541682099 -0.03199067849534659 28.888876728823398 0.012386400657924823 0.006253961488830542 7.37969229110669 1.576265860626425 12.035748423563508 -65.13245236775509 15.712568041160068 -17.386282143970988 -45.52982477373187 3.835376028301154 -70.64069106872851 -12.524470734959873 1.7270835985894353 -0.08260548866216585 -0.4765089847288693 0.037151078711638474 -8.086216433702246 0.004411040013902596 -0.001049079942762888 44.52000286847897 -0.004637656298887593 0.0034506955178813235 44.54131738815019 12.456227184416854 -0.04881526998136219 0.008179211693586689 0.010983927186369298 0.02849650962321696 -0.0258072188512546 0.04892624216647616 -0.020301464746253182 -0.015635618434986925 11.066596695408395 0.04054404528075105 -0.004277020710788246 0.011175299219834779 -0.012876698465906751 -0.04704447360637039 -0.0006189589966756394 0.04437431019214089 0.03985295244534516 4.748073703017686 -0.005091914187431293 0.04954922266411511 -0.03156249283710861 0.00988085517975195 -0.0449428218621601 0.018274809785712484 -0.01197298289988178 0.048269728957207644 -5.623971782917872 0.01429608981907525 -0.003696042276004074 -6.681120784012855 0.022545062583924847 0.012548157139728951 -6.6709506619892185 -0.019983381398305394 -0.021333254799157153 0.022003817599311776 -0.013387014338924325 0.03598476357496077 8.063525419170896 3.5109034957394436 -19.23218932188973 0.013710048625769912 10.43182652448423 0.04267438567105508 -5.626833245158014 -15.68719778840634 3.23071961840227 0.022763751338011916 0.027962377124217345 0.03338836926449505 -0.003730861048706929 4.734431754146522 -0.008707499431269075 12.440322243389115 -8.272724538620167 6.857814704617232 -0.005988359345112362 46.34261866141546 -0.04268527517849488 -4.342184145338013 -14.72154404787907 -3.802743581729742 -0.013301455236652653 0.0003468971809293587 -0.020751118154486853 0.024767358068904944 -10.794307681440708 -0.015391362686551852 
